<mxfile host="app.diagrams.net" modified="2023-08-14T15:32:05.869Z" agent="Mozilla/5.0 (Windows NT 10.0; Win64; x64) AppleWebKit/537.36 (KHTML, like Gecko) Chrome/115.0.0.0 Safari/537.36" etag="O-7W_q0Sfu8kwCIyfc5D" version="21.6.8" type="github">
  <diagram name="第 1 页" id="dMJNWCL1bGJtL2uopitH">
    <mxGraphModel dx="1877" dy="542" grid="1" gridSize="10" guides="1" tooltips="1" connect="1" arrows="1" fold="1" page="1" pageScale="1" pageWidth="827" pageHeight="1169" math="0" shadow="0">
      <root>
        <mxCell id="0" />
        <mxCell id="1" parent="0" />
        <mxCell id="zbNSWQ39G8rCh_Bigl1x-1" value="&lt;font style=&quot;font-size: 16px;&quot;&gt;小号质检&lt;/font&gt;" style="shape=process;whiteSpace=wrap;html=1;backgroundOutline=1;" vertex="1" parent="1">
          <mxGeometry x="90" y="160" width="160" height="50" as="geometry" />
        </mxCell>
        <mxCell id="zbNSWQ39G8rCh_Bigl1x-2" value="&lt;font style=&quot;font-size: 16px;&quot;&gt;作业质检&lt;/font&gt;" style="shape=process;whiteSpace=wrap;html=1;backgroundOutline=1;" vertex="1" parent="1">
          <mxGeometry x="380" y="160" width="160" height="50" as="geometry" />
        </mxCell>
        <mxCell id="zbNSWQ39G8rCh_Bigl1x-3" value="&lt;font style=&quot;font-size: 16px;&quot;&gt;小号质检&lt;/font&gt;" style="rounded=0;whiteSpace=wrap;html=1;" vertex="1" parent="1">
          <mxGeometry x="130" y="250" width="120" height="60" as="geometry" />
        </mxCell>
        <mxCell id="zbNSWQ39G8rCh_Bigl1x-4" value="&lt;font style=&quot;font-size: 16px;&quot;&gt;L1作业质检&lt;/font&gt;" style="shape=process;whiteSpace=wrap;html=1;backgroundOutline=1;" vertex="1" parent="1">
          <mxGeometry x="650" y="150" width="160" height="50" as="geometry" />
        </mxCell>
        <mxCell id="zbNSWQ39G8rCh_Bigl1x-6" value="&lt;span style=&quot;font-size: 16px;&quot;&gt;每周四10点&lt;/span&gt;" style="rounded=0;whiteSpace=wrap;html=1;" vertex="1" parent="1">
          <mxGeometry x="-60" y="250" width="120" height="60" as="geometry" />
        </mxCell>
        <mxCell id="zbNSWQ39G8rCh_Bigl1x-7" value="&lt;span style=&quot;font-size: 16px;&quot;&gt;每&lt;/span&gt;&lt;font style=&quot;font-size: 16px;&quot;&gt;天23:30&lt;/font&gt;" style="rounded=0;whiteSpace=wrap;html=1;" vertex="1" parent="1">
          <mxGeometry x="400" y="90" width="120" height="60" as="geometry" />
        </mxCell>
        <mxCell id="zbNSWQ39G8rCh_Bigl1x-8" value="&lt;span style=&quot;font-size: 16px;&quot;&gt;每&lt;/span&gt;&lt;font style=&quot;font-size: 16px;&quot;&gt;天00:01&lt;/font&gt;" style="rounded=0;whiteSpace=wrap;html=1;" vertex="1" parent="1">
          <mxGeometry x="660" y="60" width="120" height="60" as="geometry" />
        </mxCell>
      </root>
    </mxGraphModel>
  </diagram>
</mxfile>
